<svg xmlns="http://www.w3.org/2000/svg" width="512" height="512" viewBox="0 0 512 512" version="1.1">
	<path d="M 251.500 39.569 C 245.116 42.883, 240 49.867, 240 55.268 C 240 56.624, 240.920 59.948, 242.045 62.654 L 244.090 67.575 239.124 89.038 C 236.392 100.842, 232.955 116.125, 231.485 123 C 230.015 129.875, 228.459 135.872, 228.028 136.328 C 227.597 136.783, 222.127 137.770, 215.872 138.520 C 209.618 139.271, 190.550 142.134, 173.500 144.883 C 156.450 147.631, 135.779 150.819, 127.565 151.967 C 110.987 154.284, 106.133 156.191, 102.289 161.898 C 99.321 166.303, 99.168 174.124, 101.960 178.701 C 104.399 182.703, 107.957 184.558, 115 185.504 C 118.025 185.910, 120.831 186.750, 121.235 187.371 C 121.639 187.992, 121.976 216.862, 121.985 251.527 C 122.002 320.978, 121.661 317.222, 128.252 320.630 C 131.368 322.242, 133.988 322.561, 192.500 328.460 C 213.274 330.555, 218.701 331.403, 219.500 332.681 C 225.476 342.236, 227.052 343.871, 236.241 350.047 C 241.599 353.648, 246.647 357.473, 247.460 358.547 C 249.029 360.622, 249.537 365, 248.208 365 C 246.240 365, 206.941 372.239, 193.943 374.996 C 174.337 379.154, 138.142 387.818, 134.710 389.174 C 126.768 392.311, 127.297 402.881, 135.553 406.020 C 136.851 406.514, 143.180 407.608, 149.617 408.453 C 156.054 409.297, 161.548 410.215, 161.826 410.492 C 162.103 410.770, 159.400 414.035, 155.817 417.749 C 147.700 426.163, 145.822 429.760, 145.230 438.030 C 144.642 446.241, 147.396 453.319, 153.230 458.589 C 158.560 463.404, 162.729 465, 169.979 465 C 184.467 465, 196.143 453.526, 196.143 439.290 C 196.143 434.951, 195.410 432.248, 192.884 427.272 C 189.762 421.121, 189.693 420.741, 191.241 418.176 C 192.200 416.587, 193.927 415.369, 195.493 415.177 C 196.944 415, 208.114 416.068, 220.315 417.550 C 232.517 419.033, 246.541 420.528, 251.479 420.873 C 260.129 421.477, 260.494 421.600, 261.417 424.235 C 262.202 426.474, 261.990 427.382, 260.250 429.235 C 254.081 435.806, 252.190 448.404, 256.081 457 C 260.381 466.499, 269.363 472.365, 279.500 472.294 C 286.621 472.244, 291.588 470.270, 297.078 465.311 C 303.330 459.662, 306.197 453.973, 306.761 446.096 C 307.152 440.626, 306.833 438.411, 305.084 434.457 C 302.364 428.309, 300.777 426.531, 294.250 422.323 C 291.363 420.462, 289 418.512, 289 417.990 C 289 417.468, 290.688 416.189, 292.750 415.149 C 297.462 412.772, 351.159 394, 353.245 394 C 355.688 394, 355.868 396.091, 353.933 402 C 350.194 413.422, 352.199 423.442, 359.805 431.335 C 368.351 440.203, 378.937 442.044, 389 436.411 C 398.645 431.011, 403.667 421.092, 402.730 409.290 C 401.945 399.403, 396.700 392.059, 386.616 386.728 C 383.384 385.019, 380.581 384.515, 373.562 384.379 L 364.624 384.205 362.996 378.353 C 359.934 367.338, 356.713 363.008, 344.469 353.447 C 339.325 349.430, 335.807 345.884, 335.179 344.084 C 334.132 341.080, 334.837 336.042, 336.824 332.329 C 338.804 328.629, 347.141 322.032, 351.144 320.997 C 353.265 320.449, 356.776 319.539, 358.946 318.976 C 363.407 317.818, 366.486 314.473, 368.002 309.134 C 369.055 305.426, 373.044 274.523, 379.507 220 C 383.463 186.628, 394.080 106.119, 396.519 91 C 398.944 75.965, 399.014 75.839, 407.001 72.139 C 412.768 69.467, 414.423 68.135, 416.608 64.405 C 421.152 56.653, 419.186 49.513, 410.592 42.558 C 407.238 39.843, 406.080 39.500, 400.261 39.500 L 393.707 39.500 389.305 44.579 L 384.903 49.657 373.202 47.390 C 345.977 42.114, 313.674 40.070, 287.440 41.965 L 270.379 43.197 266.550 40.599 C 262.093 37.574, 256.130 37.166, 251.500 39.569 M 261.117 68.631 C 259.836 69.528, 258.104 71.890, 257.268 73.881 C 254.745 79.885, 242.121 144.123, 243.389 144.502 C 244.761 144.912, 341.105 147.042, 357.191 147.018 C 363.621 147.008, 369.112 146.629, 369.392 146.174 C 369.673 145.720, 371.076 138.408, 372.510 129.924 C 375.542 111.988, 379.112 94.576, 382.616 80.631 C 383.979 75.203, 384.935 70.601, 384.739 70.405 C 384.543 70.209, 369.784 69.817, 351.941 69.533 C 334.098 69.249, 311.400 68.573, 301.500 68.032 C 274.096 66.533, 263.895 66.685, 261.117 68.631 M 218.975 153.565 C 217.222 158.176, 217.741 159.729, 221.250 160.378 C 223.037 160.709, 225.850 160.616, 227.500 160.173 C 230.151 159.461, 230.536 158.880, 230.807 155.183 L 231.115 151 225.533 151 C 220.461 151, 219.861 151.234, 218.975 153.565 M 183 156.567 C 174.475 157.834, 164.898 159.159, 161.717 159.511 C 157.603 159.967, 155.151 160.859, 153.217 162.602 L 150.500 165.053 154.238 162.935 C 157.851 160.888, 158.713 160.841, 179.921 161.542 L 201.866 162.268 203.929 158.884 C 205.064 157.023, 205.994 155.162, 205.996 154.750 C 206.002 153.580, 199.801 154.070, 183 156.567 M 245.250 154.662 C 244.563 154.940, 244 156.416, 244 157.943 C 244 160.573, 244.291 160.750, 249.493 161.287 C 255.496 161.907, 259.786 164.364, 261.961 168.427 C 262.818 170.029, 263.954 170.844, 264.925 170.556 C 268.267 169.564, 300.401 163.612, 319 160.541 L 338.500 157.321 327.500 156.629 C 316.218 155.918, 257.678 153.996, 250.500 154.100 C 248.300 154.132, 245.938 154.385, 245.250 154.662 M 362.571 171.107 C 361.664 173.761, 356 201.563, 356 203.361 C 356 204.354, 356.555 204.982, 357.234 204.755 C 357.918 204.527, 359.028 200.811, 359.724 196.422 C 360.415 192.065, 361.719 184.546, 362.621 179.714 C 363.524 174.882, 363.989 170.655, 363.655 170.321 C 363.320 169.987, 362.833 170.341, 362.571 171.107 M 150.250 171.638 C 149.452 171.975, 149 174.289, 149 178.037 C 149 183.260, 148.709 184.104, 146.360 185.703 C 144.908 186.691, 142.433 188.703, 140.860 190.173 L 138 192.846 138.004 247.673 C 138.007 300.706, 138.073 302.607, 140.004 305.775 C 141.102 307.576, 143.088 309.463, 144.417 309.969 C 147.551 311.160, 222.801 316.952, 226.345 316.274 C 227.830 315.991, 229.935 314.627, 231.023 313.244 C 232.939 310.807, 233 309.002, 233 254.269 C 233 186.050, 234.221 191.485, 218.562 190.011 C 209.019 189.112, 206.613 187.091, 205.506 179.047 C 205.069 175.867, 204.189 173.649, 203.154 173.117 C 201.317 172.172, 152.230 170.800, 150.250 171.638 M 349.550 174.250 C 349.338 174.938, 347.978 181.575, 346.529 189 C 345.081 196.425, 343.663 203.287, 343.380 204.250 C 343.008 205.515, 343.433 206, 344.914 206 C 346.214 206, 347.155 205.179, 347.492 203.750 C 349.087 196.980, 353 176.457, 353 174.862 C 353 172.790, 350.158 172.286, 349.550 174.250 M 329.554 176.613 C 325.733 177.372, 322.322 178.332, 321.972 178.746 C 321.623 179.161, 320.793 184, 320.128 189.500 C 319.463 195, 318.663 201.341, 318.349 203.591 L 317.779 207.682 326.140 207.229 C 330.738 206.980, 334.790 206.489, 335.145 206.138 C 335.834 205.457, 341 179.444, 341 176.658 C 341 174.689, 339.274 174.682, 329.554 176.613 M 304.500 182.096 C 302.300 182.589, 299.552 183.211, 298.393 183.479 C 296.523 183.911, 296.158 185.097, 295.143 194.019 C 294.514 199.548, 294 205.240, 294 206.667 L 294 209.263 301.518 208.781 C 305.652 208.515, 309.291 208.042, 309.604 207.730 C 310.242 207.092, 312.919 188.009, 312.968 183.750 C 313.004 180.689, 311.821 180.458, 304.500 182.096 M 279.054 187.091 C 276.609 187.570, 274.051 188.533, 273.369 189.231 C 272.671 189.945, 271.820 194.784, 271.424 200.297 L 270.719 210.093 278.110 209.797 L 285.500 209.500 286.675 201 C 287.321 196.325, 287.883 191.037, 287.925 189.250 C 288.009 185.619, 287.363 185.462, 279.054 187.091 M 259.500 190.491 C 258.950 190.675, 257.262 191.098, 255.750 191.432 L 253 192.038 253 201.019 L 253 210 257.864 210 L 262.728 210 263.364 205.360 C 263.714 202.809, 264 198.309, 264 195.360 C 264 189.966, 263.311 189.220, 259.500 190.491 M 158.898 196.287 C 153.029 200.236, 152.847 201.836, 153.192 246.678 C 153.489 285.447, 153.572 286.953, 155.562 289.616 C 160.218 295.849, 161.332 296.183, 182.978 297.816 C 201.612 299.222, 203.335 299.211, 206.592 297.657 C 208.999 296.510, 210.712 294.646, 212.031 291.741 C 213.828 287.783, 213.958 284.815, 213.978 247.200 C 214.002 203.223, 214.134 204.310, 208.068 198.543 C 205.104 195.724, 204.407 195.552, 193.229 194.869 C 186.778 194.474, 177.179 194.118, 171.898 194.076 C 163.478 194.009, 161.877 194.282, 158.898 196.287 M 167.396 203.168 C 166.999 203.811, 166.460 222.478, 166.200 244.650 C 165.840 275.246, 166.016 285.314, 166.932 286.418 C 168.440 288.235, 173.299 289.357, 175.978 288.507 C 177.966 287.876, 178 287.144, 178 245.549 L 178 203.233 175.750 202.630 C 172.116 201.656, 168.174 201.910, 167.396 203.168 M 191.630 205.250 C 191.299 206.488, 191.021 226.014, 191.014 248.643 C 190.999 293.439, 190.682 291, 196.510 291 C 202.050 291, 202 291.405, 202 246.629 C 202 215.895, 201.695 205.095, 200.800 204.200 C 200.140 203.540, 197.942 203, 195.917 203 C 192.942 203, 192.117 203.433, 191.630 205.250 M 354.532 213.949 C 353.560 215.521, 346.145 253.426, 346.650 254.243 C 347.699 255.939, 350.979 254.919, 351.452 252.750 C 351.973 250.361, 357 215.022, 357 213.750 C 357 212.679, 355.228 212.822, 354.532 213.949 M 342.438 214.766 C 341.854 215.170, 339.877 223.375, 338.045 233 C 336.214 242.625, 334.507 251.059, 334.254 251.742 C 333.693 253.251, 336.797 254.619, 337.977 253.383 C 338.679 252.648, 345.063 220.570, 345.396 216.108 C 345.519 214.455, 343.931 213.735, 342.438 214.766 M 322.286 215.736 C 317.301 216.086, 317.047 216.243, 316.523 219.301 C 316.063 221.983, 312 251.038, 312 251.643 C 312 252.444, 325.341 253.059, 326.106 252.294 C 327.084 251.316, 332.978 221.318, 332.992 217.250 C 332.999 215.416, 332.492 215.034, 330.250 215.185 C 328.738 215.287, 325.154 215.535, 322.286 215.736 M 295.250 217.723 C 293.285 217.967, 292 218.693, 292 219.558 C 292 220.346, 291.284 227.551, 290.408 235.570 C 289.533 243.589, 288.970 250.283, 289.158 250.446 C 289.346 250.608, 292.751 250.964, 296.726 251.236 C 302.784 251.650, 304.031 251.469, 304.447 250.115 C 305.184 247.714, 308 224.071, 308 220.280 C 308 217.011, 307.984 217.001, 303.250 217.160 C 300.637 217.248, 297.038 217.502, 295.250 217.723 M 255.845 219.707 C 253.204 220.112, 253.187 220.173, 252.498 231.307 C 252.117 237.463, 251.961 243.850, 252.153 245.500 C 252.465 248.195, 252.856 248.500, 255.995 248.500 L 259.490 248.500 260.687 234.562 C 261.346 226.895, 261.659 220.258, 261.384 219.812 C 260.875 218.988, 260.567 218.983, 255.845 219.707 M 270.444 220.091 C 269.703 221.290, 266.977 248.281, 267.539 248.861 C 268.032 249.370, 280.998 250.357, 281.011 249.887 C 281.017 249.674, 281.691 243.200, 282.509 235.500 C 283.327 227.800, 283.997 220.938, 283.998 220.250 C 284.001 218.653, 271.424 218.505, 270.444 220.091 M 252.497 281.081 C 251.975 296.745, 252.081 303.481, 252.864 304.264 C 253.470 304.870, 254.184 305.149, 254.450 304.883 C 254.953 304.380, 257.981 267.948, 257.993 262.250 C 257.999 259.491, 257.640 259, 255.617 259 L 253.234 259 252.497 281.081 M 266.587 261.130 C 266.307 262.434, 265.364 271.375, 264.492 281 C 263.621 290.625, 262.654 299.962, 262.343 301.750 L 261.777 305 267.827 305 L 273.877 305 274.462 300.750 C 276.249 287.760, 278.960 260.627, 278.516 260.183 C 278.231 259.898, 275.545 259.461, 272.548 259.212 C 267.459 258.790, 267.064 258.917, 266.587 261.130 M 286.957 262.116 C 286.934 263.427, 285.870 273.275, 284.593 284 C 283.316 294.725, 282.456 303.708, 282.681 303.962 C 283.152 304.493, 295.059 304.275, 295.608 303.726 C 296.155 303.178, 301.842 261.558, 301.430 261.119 C 301.233 260.910, 297.905 260.512, 294.036 260.235 C 287.157 259.742, 286.999 259.784, 286.957 262.116 M 309.638 263.371 C 308.818 266.746, 303.877 303.217, 304.205 303.482 C 304.367 303.613, 307.318 303.504, 310.761 303.239 C 318.079 302.677, 316.853 305.251, 321.542 280.618 C 323.334 271.203, 324.507 263.217, 324.150 262.871 C 323.792 262.525, 320.498 262.017, 316.828 261.743 C 310.644 261.279, 310.118 261.399, 309.638 263.371 M 332.510 265.250 C 330.435 274.082, 326 297.389, 326 299.461 C 326 302.812, 329.734 303.055, 330.447 299.750 C 332.400 290.701, 336.714 264.356, 336.342 263.750 C 335.375 262.174, 333.015 263.098, 332.510 265.250 M 343.575 271.250 C 342.270 277.310, 338 300.611, 338 301.675 C 338 302.313, 342.521 301.956, 343.666 301.228 C 344.317 300.813, 345.752 293.288, 346.916 284.181 C 349.489 264.054, 349.489 264, 347.068 264 C 345.480 264, 344.858 265.291, 343.575 271.250 M 295.330 319.415 C 261.114 320.834, 260.372 321.437, 289 324.560 C 296.975 325.430, 308.425 326.786, 314.445 327.572 L 325.390 329.002 329.650 324.251 C 331.993 321.638, 333.931 319.163, 333.955 318.750 C 334.007 317.886, 330.915 317.940, 295.330 319.415 M 236.736 333.598 C 235.400 334.933, 237.617 337.357, 244.379 341.955 C 255.465 349.495, 259.046 353.739, 261.056 361.721 L 262.762 368.499 291.631 371.660 C 307.509 373.398, 325.830 375.146, 332.345 375.544 L 344.190 376.268 342.595 373.184 C 341.718 371.488, 338.872 368.390, 336.270 366.300 C 326.596 358.529, 323.334 354.674, 321.007 348.266 C 319.762 344.837, 318.152 341.541, 317.430 340.942 C 316.707 340.342, 309.002 339.221, 300.308 338.450 C 291.614 337.680, 274.825 336.142, 263 335.032 C 239.417 332.819, 237.613 332.720, 236.736 333.598 M 232 383.992 C 188.807 393.225, 179.597 395.949, 191.309 396.028 C 193.614 396.044, 206.958 397.331, 220.963 398.889 C 238.121 400.798, 247.416 401.437, 249.463 400.850 C 253.639 399.651, 279.314 385.558, 279.760 384.219 C 280.470 382.089, 276.228 381.146, 263.460 380.596 C 251.071 380.063, 249.684 380.213, 232 383.992 M 291 391.839 C 273.226 400.115, 268.331 402.655, 267.469 404.049 C 265.937 406.529, 281.041 402.700, 308.304 393.699 C 332.303 385.775, 332.753 385.240, 315.500 385.143 L 305.500 385.087 291 391.839" stroke="none" fill="black" fill-rule="evenodd"/>
</svg>