<svg width="33" height="33" viewBox="0 0 33 33" fill="none" xmlns="http://www.w3.org/2000/svg">
<path d="M12 17.25L15.25 20.5L21.75 14M2 5.25C2 4.38805 2.34241 3.5614 2.9519 2.9519C3.5614 2.34241 4.38805 2 5.25 2H28C28.862 2 29.6886 2.34241 30.2981 2.9519C30.9076 3.5614 31.25 4.38805 31.25 5.25V28C31.25 28.862 30.9076 29.6886 30.2981 30.2981C29.6886 30.9076 28.862 31.25 28 31.25H5.25C4.38805 31.25 3.5614 30.9076 2.9519 30.2981C2.34241 29.6886 2 28.862 2 28V5.25Z" stroke="#E9EAE8" stroke-width="2.75" stroke-linecap="round" stroke-linejoin="round"/>
</svg>
