<svg width="35" height="39" viewBox="0 0 35 39" fill="none" xmlns="http://www.w3.org/2000/svg">
<path d="M11.625 9.70833H23.375V3.83333C23.375 3.31395 23.1687 2.81584 22.8014 2.44858C22.4341 2.08132 21.936 1.875 21.4166 1.875H13.5833C13.0639 1.875 12.5658 2.08132 12.1986 2.44858C11.8313 2.81584 11.625 3.31395 11.625 3.83333V9.70833Z" fill="#D9D9D9"/>
<path d="M11.625 9.70833H3.79165L5.74998 33.2083C5.74998 34.2471 6.16263 35.2433 6.89714 35.9778C7.63166 36.7124 8.62788 37.125 9.66665 37.125H25.3333C26.3721 37.125 27.3683 36.7124 28.1028 35.9778C28.8373 35.2433 29.25 34.2471 29.25 33.2083L31.2083 9.70833H23.375H11.625Z" fill="#D9E2DD"/>
<path d="M1.83331 9.70833H33.1666M13.5833 17.5417V29.2917M21.4166 17.5417V29.2917M11.625 9.70833V3.83333C11.625 3.31395 11.8313 2.81584 12.1986 2.44858C12.5658 2.08132 13.0639 1.875 13.5833 1.875H21.4166C21.936 1.875 22.4341 2.08132 22.8014 2.44858C23.1687 2.81584 23.375 3.31395 23.375 3.83333V9.70833M11.625 9.70833H23.375M11.625 9.70833H3.79165L5.74998 33.2083C5.74998 34.2471 6.16263 35.2433 6.89714 35.9778C7.63166 36.7124 8.62788 37.125 9.66665 37.125H25.3333C26.3721 37.125 27.3683 36.7124 28.1028 35.9778C28.8373 35.2433 29.25 34.2471 29.25 33.2083L31.2083 9.70833H23.375" stroke="#1E5A5B" stroke-width="2.75" stroke-linecap="round" stroke-linejoin="round"/>
</svg>
