<svg width="65" height="67" viewBox="0 0 65 67" fill="none" xmlns="http://www.w3.org/2000/svg">
<path d="M32 22.1667V47.8333Z" fill="#D9E2DD"/>
<path d="M19.1667 35H44.8333Z" fill="#D9E2DD"/>
<path d="M2 10C2 5.58172 5.58172 2 10 2H55C59.4183 2 63 5.58172 63 10V57C63 61.4183 59.4183 65 55 65H10C5.58172 65 2 61.4183 2 57V10Z" fill="#D9E2DD"/>
<path d="M32 22.1667V47.8333M19.1667 35H44.8333M2 10C2 5.58172 5.58172 2 10 2H55C59.4183 2 63 5.58172 63 10V57C63 61.4183 59.4183 65 55 65H10C5.58172 65 2 61.4183 2 57V10Z" stroke="#1E5A5B" stroke-width="2.75" stroke-linecap="round" stroke-linejoin="round"/>
</svg>
